<svg id="Слой_1" data-name="Слой 1" xmlns="http://www.w3.org/2000/svg" viewBox="0 0 836.4 980.1"><path d="M128,982.5c-18.8-7.3-26.7-20.4-24.4-41.2h65c0-.3.1-.6.1-.8-1-.4-2.1-.8-3.1-1.1-18.3-5.5-30.5-21.4-30.5-40.5q-.15-143.7,0-287.5c0-23.2,17.5-41.1,40.7-42.2,1.5-.1,3-.1,4.5-.1h490c20.6,0,36.2,10.2,42.2,28.1a48.91,48.91,0,0,1,2.5,15.2q.15,142.8.1,285.5c0,20.5-11.7,35.8-31.4,41.8a36.3,36.3,0,0,0-3.4,1.5h66A34.21,34.21,0,0,1,722.9,982c-.3.1-.5.4-.7.6Q424.9,982.45,128,982.5Z" transform="translate(-6.8 -2.5)"/><path d="M491,2.5c.5,1.2,1.1,2.4,1.7,3.8-2.9,2.2-6.1,4.3-8.9,6.8-7.6,6.7-7.6,11.5,0,18.1,14.1,12.3,28.1,24.5,42.4,36.6,13.4,11.3,19.6,25.8,19.8,43,.2,19.8.1,39.7.1,59.5,0,5.4,1.3,9.6,6.5,12.4,1.8,1,3.4,4.4,3.3,6.6-1.1,14.4-2.7,28.9-4.2,43.3a5.58,5.58,0,0,1-1,2.8c-8.6,13-12.3,27.9-16.7,42.6-3.2,10.7-6.7,21.1-13.3,30.4-6.9,9.7-8.3,21.3-8.4,32.9-.1,9.8.1,19.7.8,29.5.2,2.7,2,6.3,4.2,7.8a22.85,22.85,0,0,1,9.2,12.6c2.9,9.2,6.2,18.3,9,27.5,2.5,8.3,8.1,13,16,15.6,29,9.7,58,19.5,87,29.2,34.6,11.5,69.3,22.7,102,39,3.4,1.7,6.7,3.7,10,5.6C762,515,769.2,524,772.8,538c22.6,88,46.2,175.7,69.5,263.5.3,1.2.6,2.5.9,3.8-15.6,1.7-31,2.8-46.2,5.1s-30.3,5.8-45.9,8.9v-4.7q0-101.55,0-203c-.1-37.3-24.9-68.3-61.1-76.4a101.11,101.11,0,0,0-21.3-1.9q-111-.15-222,0c-4.5,0-6.3-.9-6.9-5.7-1.8-13.9-4.2-27.7-6.5-41.4a8.15,8.15,0,0,1,2.7-7.9c6.4-6,12.5-12.4,18.9-18.5,2.1-2,2.6-3.7,1.4-6.5-2.7-5.9-4.8-12.1-7.6-17.9a6.2,6.2,0,0,0-4.6-3.1c-12.7-.3-25.3-.3-38,0-1.6,0-3.9,1.7-4.6,3.2-2.7,5.7-4.8,11.7-7.4,17.5-1.3,2.9-1,4.7,1.3,6.9,6.5,6.2,13,12.5,19.1,19.1a9.65,9.65,0,0,1,2.3,6.9c-2,14.5-4.5,28.9-6.6,43.4-.5,3.2-1.7,4.1-4.8,4.1-14.8-.1-29.7-.1-44.5-.1-60.3,0-120.7.4-181-.1-38.3-.4-68.2,24.3-77.1,55.1a92.19,92.19,0,0,0-3.5,25.1c-.3,67-.2,134-.2,201v6.3C68.9,810.9,38.2,808,6.8,806c.5-2.4.9-4.6,1.5-6.8q36-134.85,71.9-269.6a18.31,18.31,0,0,1,6.4-9.7c15.1-12.3,32.6-19.8,50.6-26.5,52.5-19.6,105-39.4,157.6-58.7,8.6-3.2,14.1-8,16.6-16.8,2.5-9.1,5.9-18,8.8-27,1.9-5.9,5-10.4,11.4-12.1,4.3-1.1,5.9-4.8,6.4-8.7,1.5-12.9,2.7-25.8,4.1-38.8a15.75,15.75,0,0,0-3.7-12.5c-11.8-13.5-18.1-29.5-21.9-46.9-2.5-11.5-7.4-22.4-10.7-33.7-4.6-15.5-8.6-31.1-9.6-47.3-.4-5.9.7-10.3,6.7-12.9,4.9-2.1,5-7.2,5.1-11.6.2-13,.1-26,.3-39,.2-9.2.2-18.4,1.3-27.4,2.3-19.1,13.4-33.3,27.2-45.8,20.1-18.2,43.8-29.7,69.8-36.3,22.2-5.6,44.9-9.5,67.4-14.1,1.1-.2,2.1-.7,3.2-1C481.7,2.5,486.3,2.5,491,2.5Z" transform="translate(-6.8 -2.5)"/></svg>