<?xml version="1.0" encoding="utf-8"?>
<!-- Generator: Adobe Illustrator 25.1.0, SVG Export Plug-In . SVG Version: 6.00 Build 0)  -->
<svg version="1.1" id="Слой_1" xmlns="http://www.w3.org/2000/svg" xmlns:xlink="http://www.w3.org/1999/xlink" x="0px" y="0px"
	 viewBox="0 0 250 250" style="enable-background:new 0 0 250 250;" xml:space="preserve">
<style type="text/css">
	.st0{stroke:#FFFFFF;stroke-width:0.9699;stroke-miterlimit:10;}
	.st1{fill:#FFFFFF;}
</style>
<path class="st0" d="M205.5,246.5H45.5c-22.6,0-41-18.3-41-41V45.5c0-22.6,18.3-41,41-41h160.1c22.6,0,41,18.3,41,41v160.1
	C246.5,228.2,228.2,246.5,205.5,246.5z"/>
<path class="st1" d="M181.3,170.2c6.1-13,11.4-32.1,11.7-52.2c0.5-29.9-10.9-47.6-27.7-47.8c-15.6-0.2-24.7,11.7-33.8,42.2
	c-10.2,36.8-24.7,59.4-48.2,59.1c-26-0.4-44.8-29.9-44.1-74c0.4-23.2,4.6-39.9,8.9-49.9l17.4,8.3c-3.1,7.3-8.3,22.4-8.6,42.9
	c-0.5,30.9,12.9,42.9,24.3,43.1c15.6,0.2,23.5-13.4,32.8-44.5c11.5-38.1,25.4-57.4,49.9-57c25.7,0.4,47.6,26.6,46.7,80
	c-0.3,21.8-5.4,45.6-11.5,57.6L181.3,170.2z"/>
<path class="st1" d="M204.2,204H45.8c-3.5,0-6.3-2.8-6.3-6.3v-3.4c0-3.5,2.8-6.3,6.3-6.3h158.4c3.5,0,6.3,2.8,6.3,6.3v3.4
	C210.5,201.2,207.7,204,204.2,204z"/>
<path class="st1" d="M116,48c-20,24-24,87.1-38,68c-8.6-11.7-2-57,10.9-79"/>
</svg>
