<svg id="Слой_1" data-name="Слой 1" xmlns="http://www.w3.org/2000/svg" viewBox="0 0 900 900"><defs><style>.cls-1{fill:#329be7;}.cls-2{fill:#fafbfb;}.cls-3{fill:#236e9f;}</style></defs><path class="cls-1" d="M900,233V648a30.09,30.09,0,0,0-.61,4.39,480.93,480.93,0,0,1-4.17,70.05c-3.11,22.34-7.66,44.38-17.68,64.93-11.39,23.38-26.54,43.89-46.11,61-18.49,16.17-39.13,28.9-62.58,36.57-30.37,9.93-61.86,12.61-93.54,14.12-9.1.43-18.25-.62-27.31.94H253c-6.38-1.47-12.9-.74-19.33-.91-23.41-.64-46.68-2.19-69.83-6-42.55-7.06-78.55-26-108.19-57.42-26.44-28-42.28-61.09-48.7-98.92C3.14,714.26,1.46,691.63.88,668.86c-.15-5.94.54-12-.88-17.86V249a24.8,24.8,0,0,0,.6-3.88q.08-16.22,1-32.4A421.34,421.34,0,0,1,8,158c7.75-41.4,27.58-75.85,58.4-104.38,31.5-29.17,69.28-43.72,111.23-49,18-2.25,36-3.16,54-4C236.76.39,241.93,1.35,247,0H662c1.4,1.86,3.38.89,5.06.91,27.11.34,54,2.52,80.57,8.21,39.8,8.54,73,28.53,100,58.68,18.52,20.65,32.23,44.13,39.75,71,8.25,29.48,11.06,59.64,11.67,90.11C899.08,230.3,898.3,232,900,233ZM693.74,267.77l12-12.5H194.6c3.83,4.75,8.93,7.54,11.66,12.48l-11.34.54c.75,2.48,2.38,3.47,3.64,4.73q18,18.08,36,36.08l106,106c15.86,15.84,31.6,31.81,47.65,47.46,12.35,12,23.73,25.09,36.95,36.2a38.78,38.78,0,0,0,53-2.37q112.07-112,224-224.06c1.07-1.07,2.9-1.81,2.43-4.53ZM150.85,621c-1.41,6.12-1.45,12.13,1.2,18,5.71,12.67,15.4,19,29.41,19q211.16,0,422.31,0,57.72,0,115.45,0c21.53,0,33.45-18.48,30-37.92a54.55,54.55,0,0,0,.65-5.93q0-63.45,0-126.9,0-100.71,0-201.4c0-7.83-2.21-14.91-7.72-21.14-1.19,1.08-2.19,1.91-3.11,2.82q-24.32,24.3-48.62,48.62l-40.13,40.13q-85.55,85.54-171.1,171.09A40.12,40.12,0,0,1,464.79,537c-17,6.33-31.55,2.11-44.09-10.42Q291.48,397.41,162.26,268.22c-1.23-1.23-2.15-2.92-4-3.39-5.57,5.92-8,12.58-8,21.38.05,18.8.13,37.6.13,56.4q0,136,0,272C150.38,616.71,150.69,618.86,150.85,621Z" transform="translate(0)"/><path class="cls-2" d="M150.85,621c-.16-2.14-.47-4.29-.47-6.43q0-136,0-272c0-18.8-.08-37.6-.13-56.4,0-8.8,2.46-15.46,8-21.38,1.85.47,2.77,2.16,4,3.39Q291.5,397.39,420.7,526.59c12.54,12.53,27.08,16.75,44.09,10.42a40.12,40.12,0,0,0,14.32-9.67q85.56-85.53,171.1-171.09l40.13-40.13Q714.66,291.81,739,267.5c.92-.91,1.92-1.74,3.11-2.82,5.51,6.23,7.71,13.31,7.72,21.14q0,100.7,0,201.4,0,63.45,0,126.9a54.55,54.55,0,0,1-.65,5.93c-2.83,15.57-14.68,25-31.63,25H182.37C165.9,645,155.29,636.89,150.85,621Z" transform="translate(0)"/><path class="cls-2" d="M206.26,267.75c-2.73-4.94-7.83-7.73-11.66-12.48H705.73l-12,12.5c-1.93,1.82-3.91,3.6-5.78,5.48Q585.31,375.87,482.7,478.51c-10.8,10.8-22.17,19.3-39,14.73-4.39-1.19-8.82-1.88-13-4-4.57-2.31-7.9-6-11.39-9.45Q315.07,375.6,210.84,271.38C209.47,270,208.46,268.11,206.26,267.75Z" transform="translate(0)"/><path class="cls-3" d="M150.85,621c4.44,15.89,15.05,24,31.52,24H717.55c17,0,28.8-9.38,31.63-25,3.49,19.44-8.43,37.9-30,37.92q-57.74,0-115.45,0-211.15,0-422.31,0c-14,0-23.7-6.34-29.41-19C149.4,633.13,149.44,627.12,150.85,621Z" transform="translate(0)"/><path class="cls-3" d="M206.26,267.75c2.2.36,3.21,2.27,4.58,3.63Q315.11,375.57,419.32,479.79c3.49,3.49,6.82,7.14,11.39,9.45,4.15,2.12,8.58,2.81,13,4,16.85,4.57,28.22-3.93,39-14.73Q585.3,375.85,688,273.25c1.87-1.88,3.85-3.66,5.78-5.48h10.88c.47,2.72-1.36,3.46-2.43,4.53q-112,112.07-224,224.06a38.78,38.78,0,0,1-53,2.37c-13.22-11.11-24.6-24.17-36.95-36.2-16.05-15.65-31.79-31.62-47.65-47.46l-106-106q-18-18-36-36.08c-1.26-1.26-2.89-2.25-3.64-4.73Z" transform="translate(0)"/></svg>