<svg id="Слой_1" data-name="Слой 1" xmlns="http://www.w3.org/2000/svg" viewBox="0 0 836.4 980.1"><defs><style>.cls-1{fill:#fff;}</style></defs><path d="M121.2,980c-18.8-7.3-26.7-20.4-24.4-41.2h65c0-.3.1-.6.1-.8-1-.4-2.1-.8-3.1-1.1-18.3-5.5-30.5-21.4-30.5-40.5q-.15-143.7,0-287.5c0-23.2,17.5-41.1,40.7-42.2,1.5-.1,3-.1,4.5-.1h490c20.6,0,36.2,10.2,42.2,28.1a49.05,49.05,0,0,1,2.5,15.2q.15,142.8.1,285.5c0,20.5-11.7,35.8-31.4,41.8a35.44,35.44,0,0,0-3.4,1.5h66a34.21,34.21,0,0,1-23.4,40.8c-.3.1-.5.4-.7.6Q418.1,980,121.2,980Z" transform="translate(0 0)"/><path d="M484.2,0c.5,1.2,1.1,2.4,1.7,3.8C483,6,479.8,8.1,477,10.6c-7.6,6.7-7.6,11.5,0,18.1,14.1,12.3,28.1,24.5,42.4,36.6,13.4,11.3,19.6,25.8,19.8,43,.2,19.8.1,39.7.1,59.5,0,5.4,1.3,9.6,6.5,12.4,1.8,1,3.4,4.4,3.3,6.6-1.1,14.4-2.7,28.9-4.2,43.3a5.55,5.55,0,0,1-1,2.8c-8.6,13-12.3,27.9-16.7,42.6-3.2,10.7-6.7,21.1-13.3,30.4-6.9,9.7-8.3,21.3-8.4,32.9-.1,9.8.1,19.7.8,29.5.2,2.7,2,6.3,4.2,7.8a22.83,22.83,0,0,1,9.2,12.6c2.9,9.2,6.2,18.3,9,27.5,2.5,8.3,8.1,13,16,15.6,29,9.7,58,19.5,87,29.2,34.6,11.5,69.3,22.7,102,39,3.4,1.7,6.7,3.7,10,5.6,11.5,6.9,18.7,15.9,22.3,29.9,22.6,88,46.2,175.7,69.5,263.5.3,1.2.6,2.5.9,3.8-15.6,1.7-31,2.8-46.2,5.1s-30.3,5.8-45.9,8.9V609.1c-.1-37.3-24.9-68.3-61.1-76.4a101.47,101.47,0,0,0-21.3-1.9q-111-.15-222,0c-4.5,0-6.3-.9-6.9-5.7-1.8-13.9-4.2-27.7-6.5-41.4a8.16,8.16,0,0,1,2.7-7.9c6.4-6,12.5-12.4,18.9-18.5,2.1-2,2.6-3.7,1.4-6.5-2.7-5.9-4.8-12.1-7.6-17.9a6.19,6.19,0,0,0-4.6-3.1c-12.7-.3-25.3-.3-38,0-1.6,0-3.9,1.7-4.6,3.2-2.7,5.7-4.8,11.7-7.4,17.5-1.3,2.9-1,4.7,1.3,6.9,6.5,6.2,13,12.5,19.1,19.1a9.65,9.65,0,0,1,2.3,6.9c-2,14.5-4.5,28.9-6.6,43.4-.5,3.2-1.7,4.1-4.8,4.1-14.8-.1-29.7-.1-44.5-.1-60.3,0-120.7.4-181-.1-38.3-.4-68.2,24.3-77.1,55.1a92.24,92.24,0,0,0-3.5,25.1c-.3,67-.2,134-.2,201v6.3C62.1,808.4,31.4,805.5,0,803.5c.5-2.4.9-4.6,1.5-6.8q36-134.85,71.9-269.6a18.29,18.29,0,0,1,6.4-9.7c15.1-12.3,32.6-19.8,50.6-26.5,52.5-19.6,105-39.4,157.6-58.7,8.6-3.2,14.1-8,16.6-16.8,2.5-9.1,5.9-18,8.8-27,1.9-5.9,5-10.4,11.4-12.1,4.3-1.1,5.9-4.8,6.4-8.7,1.5-12.9,2.7-25.8,4.1-38.8a15.75,15.75,0,0,0-3.7-12.5c-11.8-13.5-18.1-29.5-21.9-46.9-2.5-11.5-7.4-22.4-10.7-33.7-4.6-15.5-8.6-31.1-9.6-47.3-.4-5.9.7-10.3,6.7-12.9,4.9-2.1,5-7.2,5.1-11.6.2-13,.1-26,.3-39,.2-9.2.2-18.4,1.3-27.4,2.3-19.1,13.4-33.3,27.2-45.8,20.1-18.2,43.8-29.7,69.8-36.3C422,9.8,444.7,5.9,467.2,1.3c1.1-.2,2.1-.7,3.2-1C474.9,0,479.5,0,484.2,0Z" transform="translate(0 0)"/><path class="cls-1" d="M282.72,818.2l-22.34-31.82q-4.15.3-6.52.3h-25.6V818.2h-14.8V714.6h40.4q20.13,0,31.68,9.62t11.54,26.49q0,12-5.92,20.43a33.45,33.45,0,0,1-16.87,12.28l24.57,34.78ZM274.88,768q7.39-6.07,7.4-17.32t-7.4-17.24q-7.41-6-21.46-6H228.26V774.1h25.16Q267.48,774.1,274.88,768Z" transform="translate(0 0)"/><path class="cls-1" d="M377,797.18l7.69,9.18a33.17,33.17,0,0,1-13.09,9.47A49.91,49.91,0,0,1,331.86,814,36.39,36.39,0,0,1,317,799.7,41,41,0,0,1,311.73,779a41.51,41.51,0,0,1,5.11-20.57,36.5,36.5,0,0,1,14.06-14.28,42,42,0,0,1,39.59-.3,36.38,36.38,0,0,1,13.91,13.54,39.81,39.81,0,0,1,5.33,20.13l-62.31,12.14a24.19,24.19,0,0,0,10,12.58q7,4.44,16.94,4.44Q368.42,806.66,377,797.18Zm-39.15-42.77a23.6,23.6,0,0,0-9.1,9.55,30,30,0,0,0-3.26,14.28v1.48l50.18-9.47a24,24,0,0,0-8.59-13.91,24.75,24.75,0,0,0-16-5.33A25.83,25.83,0,0,0,337.85,754.41Z" transform="translate(0 0)"/><path class="cls-1" d="M483.56,739.76V818.2H469.94V805.77a30.67,30.67,0,0,1-12,9.91,37,37,0,0,1-16,3.41,41.23,41.23,0,0,1-20.42-5,36.14,36.14,0,0,1-14.14-14.14,45.39,45.39,0,0,1,0-41.81,36.27,36.27,0,0,1,14.14-14.06A41.23,41.23,0,0,1,442,739a37.63,37.63,0,0,1,15.54,3.18,30.28,30.28,0,0,1,11.84,9.4V739.76Zm-26.94,63.42a24.41,24.41,0,0,0,9.47-9.77,32.24,32.24,0,0,0,0-28.86,23.89,23.89,0,0,0-9.47-9.69,28.45,28.45,0,0,0-27,0,24.6,24.6,0,0,0-9.47,9.69,31.66,31.66,0,0,0,0,28.86,25.14,25.14,0,0,0,9.47,9.77,27.94,27.94,0,0,0,27,0Z" transform="translate(0 0)"/><path class="cls-1" d="M523.29,813.91a38,38,0,0,1-14.72-14.28,42.67,42.67,0,0,1,0-41.3,37.45,37.45,0,0,1,14.72-14.2A44,44,0,0,1,544.68,739a41.07,41.07,0,0,1,19,4.29,30.63,30.63,0,0,1,12.95,12.43l-10.8,7a24.22,24.22,0,0,0-9.18-8.44,26.24,26.24,0,0,0-12.14-2.81,28,28,0,0,0-13.83,3.41,24.18,24.18,0,0,0-9.62,9.69,32,32,0,0,0,0,29,24.18,24.18,0,0,0,9.62,9.69,28,28,0,0,0,13.83,3.41,26.13,26.13,0,0,0,12.14-2.82,24.12,24.12,0,0,0,9.18-8.43l10.8,6.81a31.09,31.09,0,0,1-12.95,12.5,40.49,40.49,0,0,1-19,4.37A43.63,43.63,0,0,1,523.29,813.91Z" transform="translate(0 0)"/><path class="cls-1" d="M635.26,813.61a21,21,0,0,1-7.7,4.07,32,32,0,0,1-9.47,1.41q-11.83,0-18.35-6.37t-6.51-18.2V722.59h14.2v17.17h22.5v11.69h-22.5v42.48q0,6.36,3.19,9.77t9.1,3.4a17.11,17.11,0,0,0,11.1-3.7Z" transform="translate(0 0)"/></svg>