<svg id="Слой_1" data-name="Слой 1" xmlns="http://www.w3.org/2000/svg" viewBox="0 0 864.29 864.14"><defs><style>.cls-1{fill:#37ade1;}.cls-2{fill:#fefefe;}.cls-3{fill:#c7d9e9;}.cls-4{fill:#a8c8dc;}</style></defs><path class="cls-1" d="M432.05,0H732.56C769,0,800.48,12.37,826.15,38.18s37.94,57.36,37.94,93.73q0,228.51,0,457c0,50,.56,100-.3,150-.95,55.46-40.21,105.17-93.48,120.2A137.85,137.85,0,0,1,732.79,864q-300.76.08-601.51,0C90.2,864,56,848.29,29.68,816.87,9.87,793.21.07,765.33.06,734.4q-.12-302.25,0-604.5C.13,73.43,35,25.26,88.37,6.82A132.17,132.17,0,0,1,132.05,0Q282.05.1,432.05,0ZM336,681.73a26.34,26.34,0,0,0,15.44-4.67,102.25,102.25,0,0,0,14.8-11.77c13.6-13,27.26-25.85,40.79-38.88,8.12-7.82,16.05-15.83,24.07-23.75,1.56.92,3.22,1.71,4.68,2.77q56.82,41.66,113.61,83.34c8.59,6.3,16.93,13,26,18.55,18.58,11.25,35.32,5.46,43.85-14.49A66.79,66.79,0,0,0,623,680.46L627.59,659q20.2-94.65,40.4-189.29,21.85-102.45,43.62-204.91c2.54-12,6.23-23.84,5.48-36.4C715.86,208,701.24,196.94,681.48,202c-4.16,1.07-8.13,2.89-12.16,4.45q-207,79.92-413.89,159.88-63.08,24.38-126.09,48.94c-7.34,2.86-14,6.9-19.25,13-6.24,7.38-5.33,15.76,2.19,21.84,5.74,4.64,12.64,6.58,19.45,8.73Q198.84,480,266,501.1q25.27,83.42,50.52,166.84C320,679.41,324.1,682.51,336,681.73Z" transform="translate(0.02 0.05)"/><path class="cls-2" d="M266,501.1Q198.84,480,131.73,458.91c-6.81-2.15-13.71-4.09-19.45-8.73-7.52-6.08-8.43-14.46-2.19-21.84,5.2-6.14,11.91-10.18,19.25-13q63-24.6,126.09-48.94,206.94-80,413.89-159.88c4-1.56,8-3.38,12.16-4.45,19.76-5.09,34.38,5.92,35.61,26.36.75,12.56-2.94,24.4-5.48,36.4Q689.94,367.27,668,469.7,647.8,564.35,627.59,659L623,680.46a66.79,66.79,0,0,1-3.81,12.37c-8.53,19.95-25.27,25.74-43.85,14.49-9.09-5.51-17.43-12.25-26-18.55q-56.82-41.64-113.61-83.34c-1.46-1.06-3.12-1.85-4.68-2.77a27.48,27.48,0,0,0-2.82-2.79Q386.69,569.41,345.08,539c0-2.14,1.71-3.14,3.05-4.34q22.64-20.25,45.31-40.49c10.88-9.75,21.65-19.64,32.55-29.38,17.46-15.6,35-31.08,52.47-46.68,11.14-10,22.13-20.11,33.25-30.1q28.35-25.47,56.79-50.84c7.43-6.63,15-13.06,22.44-19.72,5.43-4.89,10.75-9.91,15.9-15.09,2-2,3.47-5,1.73-7.71s-5.13-3-8.11-2.44c-4.23.82-8.45,1.89-12.17,4.26l-50.48,32.09q-43.14,27.4-86.28,54.78Q373.76,432.93,296,482.58C286.1,488.9,276.46,495.69,266,501.1Z" transform="translate(0.02 0.05)"/><path class="cls-3" d="M266,501.1c10.49-5.41,20.13-12.2,30.06-18.52q77.79-49.54,155.5-99.24,43.1-27.46,86.28-54.78l50.48-32.09c3.72-2.37,7.94-3.44,12.17-4.26,3-.57,6.34-.32,8.11,2.44s.3,5.67-1.73,7.71c-5.15,5.18-10.47,10.2-15.9,15.09-7.4,6.66-15,13.09-22.44,19.72Q540.06,362.54,511.71,388c-11.12,10-22.11,20.13-33.25,30.1-17.45,15.6-35,31.08-52.47,46.68-10.9,9.74-21.67,19.63-32.55,29.38q-22.62,20.29-45.31,40.49c-1.34,1.2-3,2.2-3.05,4.34a7.11,7.11,0,0,0-1,2.17c-.72,10-1.61,20.09-2,30.15-.63,16.85-1.83,33.66-3,50.48-1.35,20-2.15,40-3.18,59.93-11.86.78-16-2.32-19.47-13.79Q291.3,584.49,266,501.1Z" transform="translate(0.02 0.05)"/><path class="cls-4" d="M336,681.73c1-20,1.83-40,3.18-59.93,1.14-16.82,2.34-33.63,3-50.48.38-10.06,1.27-20.11,2-30.15a7.11,7.11,0,0,1,1-2.17q41.6,30.42,83.16,60.87a27.48,27.48,0,0,1,2.82,2.79c-8,7.92-15.95,15.93-24.07,23.75-13.53,13-27.19,25.92-40.79,38.88a102.25,102.25,0,0,1-14.8,11.77A26.34,26.34,0,0,1,336,681.73Z" transform="translate(0.02 0.05)"/></svg>